<svg xmlns="http://www.w3.org/2000/svg" xmlns:xlink="http://www.w3.org/1999/xlink" width="1024" zoomAndPan="magnify" viewBox="0 0 768 767.999994" height="1024" preserveAspectRatio="xMidYMid meet" version="1.0"><defs><clipPath id="6a08888a3c"><path d="M 8.632812 8.632812 L 759.382812 8.632812 L 759.382812 759.382812 L 8.632812 759.382812 Z M 8.632812 8.632812 " clip-rule="nonzero"/></clipPath></defs><g clip-path="url(#6a08888a3c)"><path fill="#238afe" d="M 759.394531 383.980469 C 759.394531 390.125 759.242188 396.265625 758.941406 402.398438 C 758.640625 408.535156 758.1875 414.660156 757.585938 420.773438 C 756.984375 426.886719 756.230469 432.984375 755.332031 439.058594 C 754.429688 445.136719 753.378906 451.1875 752.179688 457.214844 C 750.980469 463.238281 749.636719 469.230469 748.144531 475.191406 C 746.652344 481.148438 745.011719 487.066406 743.230469 492.945312 C 741.445312 498.824219 739.519531 504.65625 737.449219 510.441406 C 735.378906 516.226562 733.171875 521.957031 730.820312 527.628906 C 728.46875 533.304688 725.980469 538.921875 723.351562 544.472656 C 720.726562 550.027344 717.964844 555.515625 715.070312 560.929688 C 712.171875 566.347656 709.144531 571.691406 705.988281 576.960938 C 702.828125 582.230469 699.542969 587.421875 696.132812 592.527344 C 692.71875 597.636719 689.183594 602.65625 685.523438 607.59375 C 681.863281 612.527344 678.085938 617.367188 674.1875 622.117188 C 670.289062 626.867188 666.277344 631.515625 662.152344 636.066406 C 658.027344 640.621094 653.792969 645.066406 649.449219 649.410156 C 645.105469 653.753906 640.65625 657.988281 636.105469 662.117188 C 631.554688 666.242188 626.902344 670.253906 622.152344 674.148438 C 617.40625 678.046875 612.5625 681.824219 607.628906 685.484375 C 602.695312 689.144531 597.671875 692.679688 592.566406 696.09375 C 587.457031 699.507812 582.269531 702.792969 577 705.949219 C 571.730469 709.109375 566.386719 712.136719 560.96875 715.03125 C 555.550781 717.929688 550.066406 720.6875 544.511719 723.316406 C 538.957031 725.941406 533.34375 728.429688 527.667969 730.78125 C 521.992188 733.132812 516.261719 735.34375 510.480469 737.414062 C 504.695312 739.484375 498.863281 741.410156 492.984375 743.191406 C 487.105469 744.976562 481.1875 746.613281 475.226562 748.105469 C 469.269531 749.597656 463.277344 750.945312 457.25 752.144531 C 451.226562 753.339844 445.175781 754.390625 439.097656 755.292969 C 433.019531 756.195312 426.925781 756.945312 420.8125 757.546875 C 414.699219 758.152344 408.574219 758.601562 402.4375 758.902344 C 396.300781 759.207031 390.160156 759.355469 384.019531 759.355469 C 377.875 759.355469 371.734375 759.207031 365.601562 758.902344 C 359.464844 758.601562 353.339844 758.152344 347.226562 757.546875 C 341.113281 756.945312 335.015625 756.195312 328.941406 755.292969 C 322.863281 754.390625 316.8125 753.339844 310.785156 752.144531 C 304.761719 750.945312 298.769531 749.597656 292.808594 748.105469 C 286.851562 746.613281 280.933594 744.976562 275.054688 743.191406 C 269.175781 741.410156 263.34375 739.484375 257.558594 737.414062 C 251.773438 735.34375 246.042969 733.132812 240.367188 730.78125 C 234.691406 728.429688 229.078125 725.941406 223.523438 723.316406 C 217.972656 720.6875 212.484375 717.929688 207.066406 715.03125 C 201.648438 712.136719 196.304688 709.109375 191.039062 705.949219 C 185.769531 702.792969 180.578125 699.507812 175.472656 696.09375 C 170.363281 692.679688 165.34375 689.144531 160.40625 685.484375 C 155.472656 681.824219 150.632812 678.046875 145.882812 674.148438 C 141.132812 670.253906 136.484375 666.242188 131.933594 662.117188 C 127.378906 657.988281 122.933594 653.753906 118.589844 649.410156 C 114.246094 645.066406 110.007812 640.621094 105.882812 636.066406 C 101.757812 631.515625 97.746094 626.867188 93.851562 622.117188 C 89.953125 617.367188 86.175781 612.527344 82.515625 607.589844 C 78.855469 602.65625 75.320312 597.636719 71.90625 592.527344 C 68.492188 587.421875 65.207031 582.230469 62.046875 576.960938 C 58.890625 571.691406 55.863281 566.347656 52.96875 560.929688 C 50.070312 555.511719 47.308594 550.027344 44.683594 544.472656 C 42.058594 538.921875 39.566406 533.304688 37.21875 527.628906 C 34.867188 521.953125 32.65625 516.226562 30.585938 510.441406 C 28.515625 504.65625 26.589844 498.824219 24.808594 492.945312 C 23.023438 487.066406 21.386719 481.148438 19.894531 475.191406 C 18.398438 469.230469 17.054688 463.238281 15.855469 457.214844 C 14.65625 451.1875 13.609375 445.136719 12.707031 439.058594 C 11.804688 432.984375 11.054688 426.886719 10.449219 420.773438 C 9.847656 414.660156 9.398438 408.535156 9.097656 402.398438 C 8.792969 396.265625 8.644531 390.125 8.644531 383.980469 C 8.644531 377.835938 8.792969 371.699219 9.097656 365.5625 C 9.398438 359.425781 9.847656 353.300781 10.449219 347.1875 C 11.054688 341.074219 11.804688 334.980469 12.707031 328.902344 C 13.609375 322.824219 14.65625 316.773438 15.855469 310.75 C 17.054688 304.722656 18.398438 298.730469 19.894531 292.773438 C 21.386719 286.8125 23.023438 280.894531 24.808594 275.015625 C 26.589844 269.136719 28.515625 263.304688 30.585938 257.519531 C 32.65625 251.738281 34.867188 246.007812 37.21875 240.332031 C 39.566406 234.65625 42.058594 229.039062 44.683594 223.488281 C 47.308594 217.933594 50.070312 212.449219 52.96875 207.03125 C 55.863281 201.613281 58.890625 196.269531 62.046875 191 C 65.207031 185.730469 68.492188 180.542969 71.90625 175.433594 C 75.320312 170.324219 78.855469 165.304688 82.515625 160.371094 C 86.175781 155.4375 89.953125 150.59375 93.851562 145.84375 C 97.746094 141.097656 101.757812 136.445312 105.882812 131.894531 C 110.007812 127.34375 114.246094 122.894531 118.589844 118.550781 C 122.933594 114.207031 127.378906 109.972656 131.933594 105.847656 C 136.484375 101.722656 141.132812 97.710938 145.882812 93.8125 C 150.632812 89.914062 155.472656 86.136719 160.40625 82.476562 C 165.34375 78.816406 170.363281 75.28125 175.472656 71.867188 C 180.578125 68.453125 185.769531 65.167969 191.039062 62.011719 C 196.304688 58.851562 201.648438 55.824219 207.066406 52.929688 C 212.484375 50.035156 217.972656 47.273438 223.523438 44.644531 C 229.078125 42.019531 234.691406 39.53125 240.367188 37.179688 C 246.042969 34.828125 251.773438 32.617188 257.558594 30.546875 C 263.34375 28.480469 269.175781 26.554688 275.054688 24.769531 C 280.933594 22.984375 286.851562 21.347656 292.808594 19.855469 C 298.769531 18.363281 304.761719 17.015625 310.785156 15.820312 C 316.8125 14.621094 322.863281 13.570312 328.941406 12.667969 C 335.015625 11.765625 341.113281 11.015625 347.226562 10.414062 C 353.339844 9.8125 359.464844 9.359375 365.601562 9.058594 C 371.734375 8.757812 377.875 8.605469 384.019531 8.605469 C 390.160156 8.605469 396.300781 8.757812 402.4375 9.058594 C 408.574219 9.359375 414.699219 9.8125 420.8125 10.414062 C 426.925781 11.015625 433.019531 11.765625 439.097656 12.667969 C 445.175781 13.570312 451.226562 14.621094 457.25 15.820312 C 463.277344 17.015625 469.269531 18.363281 475.226562 19.855469 C 481.1875 21.347656 487.105469 22.984375 492.984375 24.769531 C 498.863281 26.554688 504.695312 28.480469 510.480469 30.546875 C 516.261719 32.617188 521.992188 34.828125 527.667969 37.179688 C 533.34375 39.53125 538.957031 42.019531 544.511719 44.644531 C 550.066406 47.273438 555.550781 50.035156 560.96875 52.929688 C 566.386719 55.824219 571.730469 58.851562 577 62.011719 C 582.269531 65.167969 587.457031 68.453125 592.566406 71.867188 C 597.671875 75.28125 602.695312 78.816406 607.628906 82.476562 C 612.5625 86.136719 617.40625 89.914062 622.152344 93.8125 C 626.902344 97.710938 631.554688 101.722656 636.105469 105.847656 C 640.65625 109.972656 645.105469 114.207031 649.449219 118.550781 C 653.792969 122.894531 658.027344 127.34375 662.152344 131.894531 C 666.277344 136.445312 670.289062 141.097656 674.1875 145.84375 C 678.085938 150.59375 681.863281 155.4375 685.523438 160.371094 C 689.183594 165.304688 692.71875 170.324219 696.132812 175.433594 C 699.542969 180.542969 702.828125 185.730469 705.988281 191 C 709.144531 196.269531 712.171875 201.613281 715.070312 207.03125 C 717.964844 212.449219 720.726562 217.933594 723.351562 223.488281 C 725.980469 229.039062 728.46875 234.65625 730.820312 240.332031 C 733.171875 246.007812 735.378906 251.738281 737.449219 257.519531 C 739.519531 263.304688 741.445312 269.136719 743.230469 275.015625 C 745.011719 280.894531 746.652344 286.8125 748.144531 292.773438 C 749.636719 298.730469 750.980469 304.722656 752.179688 310.75 C 753.378906 316.773438 754.429688 322.824219 755.332031 328.902344 C 756.230469 334.980469 756.984375 341.074219 757.585938 347.1875 C 758.1875 353.300781 758.640625 359.425781 758.941406 365.5625 C 759.242188 371.699219 759.394531 377.835938 759.394531 383.980469 Z M 759.394531 383.980469 " fill-opacity="1" fill-rule="nonzero"/></g><path fill="#ffffff" d="M 165.046875 214.25 L 602.964844 214.25 L 602.964844 283.113281 L 165.046875 283.113281 Z M 255.496094 553.738281 L 383.992188 425.214844 L 512.515625 553.738281 L 602.964844 553.738281 L 384.042969 334.789062 L 383.992188 334.789062 L 165.046875 553.738281 Z M 255.496094 553.738281 " fill-opacity="1" fill-rule="evenodd"/></svg>